<svg width="82" height="82" viewBox="0 0 82 82" fill="none" xmlns="http://www.w3.org/2000/svg">
<g filter="url(#filter0_d_110_96)">
<path d="M44.7974 60.212C55.4498 62.9267 61.585 65.7204 71.2982 72.212C76.7974 74.6877 77.1701 71.8546 76.7974 68.212C70.7519 56.2507 67.8596 49.2714 65.7974 35.712C66.1792 22.6071 69.0617 15.8865 76.7974 4.21198C77.584 0.924576 76.7974 -0.398438 73.1641 1.13772C62.2108 8.49177 54.4077 11.395 41.7974 11.712C30.031 10.7003 20.7189 8.66708 8.66406 1.11366C3.73884 0.569642 4.01769 2.15193 5.29551 5.69985C11.8927 19.6315 15.1918 25.5402 15.7974 39.212C16.189 51.2529 13.7726 57.5984 6.29742 68.212C5.25103 72.772 7.66406 73.6105 11.1641 71.6105C22.6641 63.1105 29.1763 60.1367 44.7974 60.212Z" stroke="#F06600" shape-rendering="crispEdges"/>
</g>
<defs>
<filter id="filter0_d_110_96" x="0" y="0" width="81.5742" height="81.6484" filterUnits="userSpaceOnUse" color-interpolation-filters="sRGB">
<feFlood flood-opacity="0" result="BackgroundImageFix"/>
<feColorMatrix in="SourceAlpha" type="matrix" values="0 0 0 0 0 0 0 0 0 0 0 0 0 0 0 0 0 0 127 0" result="hardAlpha"/>
<feOffset dy="4"/>
<feGaussianBlur stdDeviation="2"/>
<feComposite in2="hardAlpha" operator="out"/>
<feColorMatrix type="matrix" values="0 0 0 0 0 0 0 0 0 0 0 0 0 0 0 0 0 0 0.25 0"/>
<feBlend mode="normal" in2="BackgroundImageFix" result="effect1_dropShadow_110_96"/>
<feBlend mode="normal" in="SourceGraphic" in2="effect1_dropShadow_110_96" result="shape"/>
</filter>
</defs>
</svg>
